<?xml version="1.0" encoding="utf-8"?>
<!-- Generator: Adobe Illustrator 24.0.2, SVG Export Plug-In . SVG Version: 6.00 Build 0)  -->
<svg version="1.1" id="Layer_1" xmlns="http://www.w3.org/2000/svg" xmlns:xlink="http://www.w3.org/1999/xlink" x="0px" y="0px"
	 viewBox="0 0 1920 1080" style="enable-background:new 0 0 1920 1080;" xml:space="preserve">
<style type="text/css">
	.st0{fill:none;}
	.st1{fill:url(#SVGID_1_);}
	.st2{opacity:0.25;}
	.st3{fill:#50752A;}
	.st4{fill:#426A26;}
	.st5{fill:#456D27;}
</style>
<rect class="st0" width="1920" height="1080"/>
<linearGradient id="SVGID_1_" gradientUnits="userSpaceOnUse" x1="960" y1="-29.1915" x2="960" y2="1080.173">
	<stop  offset="1.274966e-07" style="stop-color:#AECE3F"/>
	<stop  offset="4.186114e-02" style="stop-color:#B3D242"/>
	<stop  offset="0.328" style="stop-color:#D2E853"/>
	<stop  offset="0.4888" style="stop-color:#DDF15A"/>
	<stop  offset="0.5737" style="stop-color:#C6E755"/>
	<stop  offset="1" style="stop-color:#56B73D"/>
</linearGradient>
<rect y="0.4" class="st1" width="1920" height="1079.6"/>
<g class="st2">
	<path class="st3" d="M838,986.8c-1.1,0.5-2.3,0.7-3.6,0.5c-0.4-0.1-0.9-0.1-1.3-0.2H833c-27.3-3.8-45.9,8.8-47.9,24.3
		c0.5,2,0.9,4,1.3,6.1c8.2-1,17.3-5.1,25.9-13.2c0.5-0.4,0.9-0.9,1.3-1.3h-0.2c1.2-1.2,2.6-1.9,4.2-2c6.5-0.6,12.8,9.4,14,22.4
		c1.2,13-3,24-9.5,24.6c-1,0.1-2.1-0.1-3.1-0.5c-0.4-0.2-0.7-0.3-1-0.5h-0.1c-10.9-5.2-21-6.4-29.1-4.7c0,13.2-1.9,25.9-5.5,37.9
		H484.4c0.9-5.2,3.2-9,6.6-9.8c1-0.3,2.1-0.3,3.2,0c0.4,0.1,0.7,0.2,1.1,0.3h0.1c11.5,3.4,21.6,3.1,29.4,0.3
		c-2-9.2-2.8-16.5-3.1-21.4c-1.3-17.6-27.3-25.5-54.1-12.9c-0.6,0.3-1.3,0.6-1.9,1h0.2c-1.8,0.8-3.5,1.2-5.3,0.8
		c-7.3-1.6-10.6-14.7-7.4-29.3c3.2-14.5,11.7-25,19-23.4c1.2,0.3,2.3,0.8,3.2,1.7c0.3,0.3,0.6,0.6,1,0.9c0,0,0,0,0.1,0.1
		c20,19,42.5,19.5,53.1,8c2-5.6,4.5-11.1,7.3-16.3c2.7-15.9-12.7-33.5-40.7-36c-0.7-0.1-1.4-0.1-2.1-0.2l0.2,0.2
		c-2-0.2-3.7-0.8-4.9-2c-5.5-5.1-1.7-18,8.5-29c10.1-10.9,22.8-15.7,28.3-10.6c0.9,0.8,1.5,1.8,2,3.1c0.1,0.4,0.2,0.8,0.4,1.3v0.1
		c7.3,25.1,24.8,37,39.4,34.3c2-1.7,4-3.4,6.1-5c-4-7.5-11.8-14.7-23.3-19.5c-0.6-0.2-1.2-0.5-1.7-0.7l0.1,0.2
		c-1.6-0.6-2.8-1.6-3.6-3c-3.2-5.7,3.4-15.5,14.7-21.9s23.1-7,26.3-1.4c0.5,0.9,0.8,2,0.8,3.1c0,0.4,0,0.8,0,1.2v0.1
		c-0.3,12.1,2.8,21.9,7.7,28.7c5-2.5,10.1-4.7,15.4-6.6c0.8-0.3,1.6-0.6,2.3-0.8c13.4-4.5,27.7-7,42.6-7c12.6-8,17.2-29,5-52.1
		c-0.3-0.6-0.7-1.2-1-1.9v0.2c-0.9-1.7-1.3-3.5-1-5.2c1.3-7.3,14.2-11.2,28.9-8.7s25.6,10.6,24.3,17.9c-0.2,1.2-0.7,2.3-1.5,3.3
		c-0.3,0.3-0.6,0.7-0.9,1c0,0,0,0.1-0.1,0.1c-19.2,22.2-17.4,46.2-3.2,55.2c0.5,0.2,1,0.4,1.5,0.6c3.1-7.2,4.3-16.6,2.3-27.4
		c-0.1-0.6-0.2-1.2-0.4-1.8l-0.1,0.2c-0.3-1.7-0.2-3.3,0.5-4.6c3-5.8,14.8-5.6,26.4,0.4c11.5,6,18.5,15.6,15.5,21.4
		c-0.5,1-1.2,1.7-2.1,2.4c-0.3,0.2-0.7,0.4-1,0.6h-0.1c-9.7,6-16,13.3-19.3,20.6c14.3,9.5,26.7,21.7,36.4,35.8
		c13.6,6.7,34-0.8,47-23.9c0.3-0.6,0.7-1.2,1-1.9l-0.2,0.1c0.9-1.7,2.2-3,3.8-3.7c6.8-2.9,17.2,5.8,23,19.5
		C845.7,970.4,844.9,983.9,838,986.8z"/>
</g>
<g class="st2">
	<path class="st3" d="M1836.8,986.9c-1.1,0.5-2.3,0.7-3.6,0.5c-0.4-0.1-0.9-0.1-1.3-0.2h-0.1c-27.3-3.8-45.9,8.8-47.9,24.3
		c0.5,2,0.9,4,1.3,6.1c8.2-0.9,17.3-5.1,25.9-13.2c0.4-0.4,0.9-0.9,1.3-1.3h-0.2c1.2-1.2,2.6-1.9,4.2-2.1c6.5-0.6,12.8,9.4,14,22.4
		s-3,24-9.5,24.6c-1.1,0.1-2.1-0.1-3.1-0.5c-0.4-0.2-0.7-0.3-1.1-0.5c-0.1,0-0.1,0-0.1,0c-10.9-5.2-21-6.4-29.1-4.7
		c0,13.2-1.9,25.9-5.5,37.9h-298.8c0.9-5.2,3.2-9,6.6-9.8c1-0.3,2.1-0.3,3.2,0c0.4,0.1,0.7,0.2,1.1,0.3c0.1,0,0.1,0,0.1,0
		c11.5,3.4,21.6,3.1,29.4,0.3c-2-9.2-2.8-16.5-3.1-21.4c-1.3-17.6-27.3-25.5-54.1-12.9c-0.7,0.3-1.3,0.6-1.9,1h0.2
		c-1.8,0.8-3.6,1.2-5.3,0.8c-7.3-1.6-10.6-14.7-7.3-29.3c3.2-14.5,11.7-25,19-23.4c1.2,0.3,2.3,0.8,3.2,1.7c0.3,0.3,0.6,0.6,1,0.9
		c0,0,0.1,0,0.1,0.1c20,19,42.5,19.5,53.1,8c2.1-5.6,4.5-11.1,7.3-16.3c2.7-15.9-12.7-33.5-40.7-36c-0.7-0.1-1.4-0.1-2.2-0.2
		l0.2,0.2c-1.9-0.2-3.7-0.8-4.9-2c-5.5-5.1-1.7-18,8.4-29c10.1-10.9,22.8-15.7,28.2-10.6c0.9,0.8,1.6,1.8,1.9,3.1
		c0.1,0.4,0.2,0.8,0.4,1.3v0.1c7.3,25.1,24.8,37,39.4,34.3c2-1.7,4-3.4,6.1-5c-4-7.5-11.8-14.7-23.3-19.5c-0.6-0.2-1.2-0.5-1.7-0.7
		l0.1,0.2c-1.6-0.6-2.8-1.6-3.6-3c-3.2-5.7,3.4-15.5,14.7-21.9c11.3-6.4,23.1-7,26.3-1.4c0.5,0.9,0.8,2,0.8,3.1c0,0.4,0,0.8,0,1.2
		v0.1c-0.3,12.1,2.8,21.9,7.7,28.7c5-2.5,10.1-4.7,15.4-6.6c0.8-0.3,1.6-0.6,2.3-0.8c13.4-4.5,27.7-7,42.6-7c12.6-8,17.2-29,5-52.1
		c-0.3-0.6-0.7-1.2-1-1.9v0.2c-0.9-1.7-1.3-3.5-1-5.2c1.3-7.3,14.2-11.2,28.9-8.7c14.7,2.5,25.6,10.6,24.3,17.9
		c-0.2,1.2-0.7,2.3-1.5,3.3c-0.3,0.3-0.6,0.7-0.9,1l-0.1,0.1c-19.2,22.2-17.4,46.2-3.2,55.2c0.5,0.2,1,0.4,1.5,0.6
		c3.1-7.2,4.3-16.6,2.3-27.4c-0.1-0.6-0.2-1.2-0.4-1.8l-0.1,0.2c-0.3-1.7-0.2-3.3,0.5-4.6c3-5.8,14.8-5.6,26.4,0.4
		s18.5,15.6,15.5,21.4c-0.5,1-1.2,1.7-2.1,2.4c-0.3,0.2-0.7,0.4-1,0.6h-0.1c-9.7,6-16,13.3-19.3,20.6c14.3,9.5,26.7,21.7,36.4,35.8
		c13.6,6.7,34-0.8,47-23.9c0.3-0.6,0.7-1.2,1-1.9l-0.2,0.1c0.9-1.7,2.2-3,3.8-3.7c6.8-2.9,17.2,5.8,23,19.5
		C1844.5,970.5,1843.7,984,1836.8,986.9z"/>
</g>
<g class="st2">
	<path class="st4" d="M1108.4,100.4c-5.6,23.7-19.8,40.7-31.7,37.8c-1.9-0.4-3.7-1.4-5.2-2.8c-0.5-0.5-1-1-1.6-1.6
		c-0.1-0.1-0.1-0.1-0.1-0.1c-34.4-33.6-73.8-33.1-89.9-10.7c-0.4,0.8-0.8,1.7-1.2,2.5c11.5,5.8,26.7,8.7,44.6,6.6
		c1-0.1,2-0.3,3.1-0.4l-0.3-0.2c2.8-0.4,5.4,0,7.5,1.4c9.2,5.5,7.7,24.8-3.3,43.1s-27.3,28.6-36.5,23.1c-1.5-0.9-2.7-2.2-3.6-3.7
		c-0.3-0.6-0.6-1.1-0.9-1.7c0-0.1-0.1-0.1-0.1-0.2c-8.8-16.4-20.1-27.5-31.7-33.6c-17,22.4-38.1,41.4-62.2,55.9
		c-12.3,21.5-2.1,55.7,34.4,79.1c1,0.6,2,1.3,3,1.9l-0.1-0.4c2.7,1.7,4.7,3.9,5.6,6.6c4.1,11.5-11.2,27.5-34.2,35.6
		c-23,8.2-45,5.5-49-6c-0.7-1.9-0.8-3.9-0.5-5.9c0.1-0.7,0.3-1.4,0.5-2.1c0-0.1,0-0.1,0.1-0.2c8.9-44.2-9.8-75.8-34.8-80.6
		c-3.3,0.6-6.7,1.1-10,1.5c0.7,13.5,6.6,28.8,18.9,43.6c0.7,0.8,1.3,1.6,2,2.3v-0.3c1.8,2.1,2.9,4.5,2.9,7
		c0.4,10.7-16.6,19.9-37.9,20.6c-21.3,0.7-38.9-7.4-39.3-18c-0.1-1.7,0.3-3.4,1.2-5c0.3-0.6,0.6-1.1,0.9-1.7c0-0.1,0-0.1,0.1-0.1
		c9.5-17.2,12.5-33.6,10.7-47.1c-32.2-2-62.4-10.9-89.1-25.1c-23.7,2.3-45.5,28.7-45.4,70.4c0,1.1,0,2.3,0.1,3.5l0.2-0.3
		c0,3.1-0.7,5.9-2.5,8.2c-7.3,9.5-28.6,5.4-47.6-9.2S557,260,564.3,250.5c1.2-1.6,2.7-2.7,4.6-3.6c0.7-0.3,1.3-0.5,2-0.8
		c0.1,0,0.1,0,0.2,0c43.6-17.2,59-52.4,45.8-75.7c-6.1-7.1-11.7-14.6-16.8-22.5c-11.8,6.8-23.1,19.1-30.8,37.2
		c-0.4,0.9-0.8,1.9-1.2,2.9l0.3-0.2c-1.1,2.6-2.7,4.6-4.9,5.8c-9.3,5.2-25.3-5.7-35.7-24.3s-11.3-37.9-2-43.1c1.5-0.8,3.2-1.3,5-1.3
		c0.6,0,1.3,0.1,1.9,0.1c0.1,0,0.1,0,0.2,0c20.5,0.6,37-4.7,48.2-13.1c-7.5-18.1-12.6-37.3-15-57.4c-15.7-17.8-49.5-21.1-84.2,1.5
		c-1,0.7-2,1.3-2.9,2h0.4c-2.6,1.8-5.5,2.7-8.3,2.4c-12.2-1-20.5-21.5-18.5-45.8c0.4-5,1.2-9.8,2.3-14.2h545
		c1.8,13.6,2.3,27.5,1.4,41.6c11.8,21.4,45.7,31,84.7,13.4c1.1-0.5,2.1-1,3.2-1.5l-0.4-0.1c2.9-1.3,5.8-1.8,8.6-1.1
		C1109,55.1,1114.1,76.6,1108.4,100.4z"/>
</g>
<g class="st2">
	<path class="st5" d="M1920.8,281.5v180.6c-0.3,0.3-0.5,0.6-0.8,1c-2.5,3-5.1,5.8-7.8,8.6c2.1,2.4,4.7,4.6,7.8,6.6V522
		c-5.3,1.7-9.8,1.3-12.2-1.4c-0.7-0.8-1.2-1.8-1.5-2.9c-0.1-0.4-0.1-0.8-0.2-1.2v-0.1c-2.3-12.7-7.8-22.2-14.5-28
		c-10.2,7-21.4,12.7-33.4,16.8c-8.9,12-6.5,33.3,12.1,51.7c0.5,0.5,1.1,1,1.6,1.5v-0.2c1.4,1.4,2.4,3,2.6,4.8
		c1,7.6-10.5,15.5-25.8,17.5c-15.3,2-28.4-2.5-29.4-10.2c-0.2-1.2,0-2.5,0.5-3.7c0.2-0.4,0.4-0.8,0.6-1.3c0,0,0-0.1,0.1-0.1
		c10.4-24.2,4.9-44.8-7.7-52.7c-3.4,0-6.7-0.1-10.1-0.4c-1.6,8.6-0.1,19.2,5.8,30.4c0.3,0.6,0.6,1.1,0.9,1.7l0.1-0.2
		c0.8,1.5,1.2,3.2,0.9,4.7c-1.2,6.6-12.9,10.1-26.1,7.7c-13.3-2.4-23-9.6-21.8-16.3c0.2-1.1,0.7-2.1,1.4-3c0.3-0.3,0.5-0.6,0.8-0.9
		l0.1-0.1c8.4-9.7,12.4-19.8,12.8-28.5c-12.1-3.3-23.5-8.2-34.1-14.5c-10.8,5-20.6,17.3-24.5,35.8c-0.1,0.7-0.3,1.4-0.4,2.2
		c0,0-1.1,3.5-2.4,4.7c-5.8,5-18.7-0.4-28.7-12.2c-10-11.7-13.3-25.3-7.5-30.2c0.9-0.8,2.1-1.4,3.4-1.6l1.5-0.2
		c15.6-2.6,27-9.4,33.5-17.6c-8.3-7.9-15.6-17-21.7-26.9c-8.2,3.2-16.5,10.3-22.9,21.6c-0.3,0.6-0.7,1.6-0.7,1.6
		c-0.8,1.5-2,2.7-3.5,3.3c-6.2,2.6-15.5-5.3-20.7-17.7c-5.2-12.4-4.4-24.6,1.8-27.2c1-0.4,2.1-0.6,3.3-0.5c0.4,0,0.8,0.1,1.2,0.2
		c0.1,0,0.1,0,0.1,0c12.3,1.7,22.6-0.2,30.1-4.3c-3.5-9.1-5.4-16.4-6.4-21.4c-4-17.8-31.8-21.8-57.2-4.8c-0.6,0.4-1.2,0.8-1.8,1.3
		h0.3c-1.7,1.1-3.4,1.7-5.3,1.6c-7.7-0.5-13.1-13.4-12-28.7c1.1-15.4,8.1-27.4,15.8-26.9c1.3,0.1,2.4,0.5,3.6,1.2
		c0.4,0.3,0.7,0.5,1.1,0.8c0,0,0.1,0,0.1,0.1c23.4,16.3,46.4,13.4,55.4,0c1.2-6.1,2.9-12,4.9-17.8c0.3-16.7-18.1-32.2-47.1-30.4
		c-0.7,0-1.5,0.1-2.2,0.2l0.2,0.1c-2,0.1-3.9-0.3-5.3-1.3c-6.4-4.3-4.5-18.1,4.2-30.9c8.7-12.7,20.8-19.6,27.2-15.2
		c1,0.7,1.9,1.6,2.5,2.8c0.2,0.4,0.4,0.8,0.6,1.3v0.1c11.4,24.5,31.1,33.9,45.5,29c1.8-2.1,3.6-4.1,5.4-6
		c-5.3-7.1-14.3-13.2-26.8-16.3c-0.6-0.1-1.3-0.3-1.9-0.5l0.1,0.2c-1.7-0.4-3.2-1.2-4.1-2.5c-4.2-5.3,1-16.3,11.6-24.6
		c10.6-8.3,22.5-10.8,26.7-5.5c0.7,0.9,1.1,1.9,1.3,3c0,0.4,0.1,0.8,0.2,1.2v0.1c1.6,12.4,6.2,21.9,12.3,28.1
		c4.7-3.3,9.6-6.4,14.7-9.2c0.8-0.4,1.5-0.8,2.3-1.2c13-6.7,27.2-11.4,42.4-13.7c11.6-10.1,13.1-32.3-3-54c-0.4-0.6-0.9-1.2-1.3-1.8
		v0.3c-1.2-1.6-1.9-3.4-1.8-5.2c0.2-7.7,12.8-13.7,28.2-13.3c15.4,0.3,27.7,6.9,27.5,14.6c0,1.2-0.4,2.5-1,3.6
		c-0.3,0.4-0.5,0.8-0.8,1.2c0,0,0,0.1-0.1,0.1c-16.1,25.6-10.6,49.9,5.3,56.8c0.6,0.1,1.1,0.3,1.7,0.4c2.1-7.8,1.8-17.6-1.8-28.4
		c-0.2-0.6-0.4-1.2-0.7-1.8l-0.1,0.2c-0.6-1.7-0.7-3.3-0.2-4.8c2.2-6.4,14.3-8,27-3.6c12.7,4.4,21.3,13.1,19.1,19.4
		c-0.4,1-1,2-1.8,2.7c-0.3,0.3-0.6,0.5-0.9,0.8l-0.1,0.1c-9,7.6-14.3,16.1-16.5,24c16.1,7.5,30.6,18,42.7,30.9
		c1.6,0.5,3.3,0.8,4.9,0.9C1920.3,281.5,1920.5,281.5,1920.8,281.5z"/>
</g>
<g class="st2">
	<path class="st5" d="M4.1,731.7c0.8,1.5,1.2,3.2,0.9,4.7c-0.4,2.4-2.2,4.4-5,5.8v-19c0.9,2.3,1.9,4.6,3.1,7
		c0.3,0.6,0.6,1.1,0.9,1.7L4.1,731.7z"/>
	<path class="st5" d="M198.2,649.2c-6.5,13.6-17.3,22.1-24.1,18.8c-1.1-0.5-2.1-1.3-2.8-2.4c-0.3-0.4-0.5-0.8-0.8-1.1
		c0,0,0-0.1-0.1-0.1c-16.4-24.6-40.1-29.5-52.8-18.2c-3.6,4.7-7.5,9.2-11.6,13.4c5.7,6.4,14.9,11.7,27,14.1c0.6,0.1,1.3,0.2,1.9,0.3
		l-0.1-0.2c1.7,0.3,3.2,1,4.2,2.2c4.5,5-0.1,16.3-10.3,25.3c-10.1,8.9-21.9,12-26.3,6.9c-0.7-0.8-1.2-1.8-1.5-2.9
		c-0.1-0.4-0.1-0.8-0.2-1.2V704c-2.3-12.7-7.8-22.2-14.5-28c-10.2,7-21.4,12.7-33.4,16.8c-8.9,12-6.5,33.3,12.1,51.7
		c0.5,0.5,1.1,1,1.6,1.5v-0.3c1.4,1.4,2.4,3,2.6,4.8c1,7.6-10.5,15.5-25.8,17.5s-28.4-2.5-29.5-10.2c-0.2-1.2,0-2.5,0.5-3.7
		c0.2-0.4,0.4-0.8,0.6-1.3c0,0,0-0.1,0.1-0.1c10.4-24.2,4.9-44.8-7.7-52.7c-2.5,0-5-0.1-7.4-0.2v-347c3-0.5,6.3-0.7,9.7-0.7
		c15.4,0.3,27.7,6.9,27.5,14.5c0,1.2-0.4,2.5-1,3.6c-0.3,0.4-0.5,0.8-0.8,1.2c0,0,0,0.1-0.1,0.1c-16.1,25.6-10.6,49.9,5.3,56.8
		c0.5,0.1,1.1,0.3,1.7,0.4c2.1-7.8,1.8-17.6-1.8-28.4c-0.2-0.6-0.4-1.2-0.7-1.8l-0.1,0.2c-0.6-1.7-0.7-3.3-0.2-4.8
		c2.2-6.4,14.3-8,27-3.6s21.3,13,19.1,19.4c-0.4,1-1,2-1.8,2.7c-0.3,0.3-0.6,0.5-0.9,0.8l-0.1,0.1c-9,7.6-14.3,16.1-16.5,24
		c16.1,7.5,30.6,18,42.7,30.9c14.9,4.7,34.6-6.1,44.3-31.7c0.3-0.7,0.5-1.4,0.8-2.1l-0.2,0.1c0.7-1.9,1.8-3.4,3.3-4.3
		c6.5-4.1,18.4,3.3,26.5,16.4s9.4,27,2.8,31c-1.1,0.7-2.3,1-3.6,1.1c-0.4,0-0.9,0-1.4,0c-0.1,0-0.1,0-0.1,0
		c-28.4,0.4-45.5,16-45.1,32.2c0.8,2,1.5,4,2.2,6c8.2-2.2,16.9-7.9,24.4-17.4c0.4-0.5,0.8-1,1.2-1.5h-0.2c1.1-1.4,2.4-2.4,3.9-2.7
		c6.5-1.6,14.5,7.6,17.7,20.7c3.3,13,0.6,25-5.9,26.6c-1.1,0.3-2.2,0.3-3.3,0c-0.4-0.1-0.8-0.2-1.1-0.4c-0.1,0-0.1,0-0.1,0
		c-11.9-3.6-22.4-3.3-30.4-0.3c3,20.1,1.6,39.9-3.7,58.3c4.6,14.3,23.7,24.3,49.4,18.7c0.7-0.2,1.4-0.3,2.1-0.5l-0.2-0.1
		c1.9-0.5,3.8-0.3,5.4,0.4C204.4,621.9,204.7,635.6,198.2,649.2z"/>
</g>
</svg>
