<?xml version="1.0" encoding="utf-8"?>
<!-- Generator: Adobe Illustrator 24.0.1, SVG Export Plug-In . SVG Version: 6.00 Build 0)  -->
<svg version="1.1" xmlns="http://www.w3.org/2000/svg" xmlns:xlink="http://www.w3.org/1999/xlink" x="0px" y="0px"
	 viewBox="0 0 1877.41 1331.47" style="enable-background:new 0 0 1877.41 1331.47;" xml:space="preserve">
<style type="text/css">
	.st0{fill:#584DF4;}
	.st1{fill:#2FDBF4;}
</style>
<g id="Layer_1">
</g>
<g id="Layer_2">
</g>
<g id="Layer_3">
</g>
<g id="Layer_4">
	<g>
		<path class="st0" d="M1842.88,950.64c-42.13,0-72.55,12.1-97.53,40.97l-19.05-40.29h-66.01c-8.66,0-15.68,7.02-15.68,15.68v353.16
			c0,4.7,3.81,8.51,8.51,8.51h102.08c6.29,0,11.39-5.1,11.39-11.39v-190.92c0-45.15,18.08-64.1,61.28-64.1h31.67
			c8.65,0,15.66-7.01,15.66-15.66V966.3c0-8.65-7.01-15.66-15.66-15.66H1842.88z"/>
		<path class="st0" d="M1493.18,950.64l-12.44,42.38c-29.25-24.1-66.53-38.05-108.22-38.05c-108.32,0-185.73,78.04-185.73,187.73
			c0,110.07,77.41,189.09,185.73,189.09c41.11,0,77.85-13.51,106.86-37.03l10.45,35.72h85.76c4.7,0,8.51-3.81,8.51-8.51V966.32
			c0-8.66-7.02-15.68-15.68-15.68H1493.18z M1388.79,1223.75c-45.68,0-79.26-34.5-79.26-80.77c0-45.97,33.29-80.48,79.26-80.48
			c45.73,0,79.31,34.5,79.31,80.48C1468.1,1189.25,1434.52,1223.75,1388.79,1223.75z"/>
		<path class="st0" d="M1088.57,1130.16l99.47-162.04c4.51-7.35-0.78-16.8-9.4-16.8h-101.55c-7.08,0-13.58,3.91-16.9,10.16
			l-48.11,90.63l-45.86-90.32c-3.26-6.42-9.86-10.47-17.06-10.47H845.69c-8.56,0-13.86,9.34-9.46,16.69l98.87,165.31l-107.41,178.65
			c-4.42,7.35,0.87,16.71,9.45,16.71h103.49c7.19,0,13.78-4.04,17.05-10.45l54.06-106.09l52.93,105.95
			c3.24,6.49,9.87,10.58,17.12,10.58h105.13c8.55,0,13.84-9.3,9.48-16.65L1088.57,1130.16z"/>
		<path class="st0" d="M838.15,1136.62c0-103.85-79.02-185.3-193.17-185.3c-111.19,0-192.39,79.79-192.39,188.41
			c0,108.18,81.88,188.94,192.39,188.94c79.2,0,144.73-40.14,175.68-106.11c5.5-11.73-3.21-25.19-16.17-25.19h-95.51
			c-11.71,20.7-35.52,33.19-64,33.19c-38.54,0-64.34-20.99-72.31-61.62h247.09c9.27,0,17-7.12,17.73-16.36
			C837.92,1147.24,838.15,1141.93,838.15,1136.62z M574.81,1101.39c9.87-35.18,34.6-54.48,70.17-54.48
			c36.79,0,62.3,19.1,72.99,54.48H574.81z"/>
		<path class="st0" d="M403.13,862.58v463.03c0,2.2-1.78,3.98-3.98,3.98H276.21c-2.2,0-3.98-1.78-3.98-3.98v-176.83H130.89v176.83
			c0,2.2-1.78,3.98-3.98,3.98H3.97c-2.2,0-3.98-1.78-3.98-3.98V862.58c0-2.2,1.78-3.98,3.98-3.98h122.95c2.2,0,3.98,1.78,3.98,3.98
			v165.95h141.34V862.58c0-2.2,1.78-3.98,3.98-3.98h122.95C401.35,858.61,403.13,860.39,403.13,862.58z"/>
		<g>
			<g>
				<g>
					<path class="st0" d="M800.18,361.06v216.37c0,6.61-6.88,11-12.9,8.19l-141.11-70.33c-2.22-1.13-3.98-2.85-5.16-4.98
						L800.18,361.06z"/>
					<path class="st1" d="M800.18,210.13V18.43c0-9.59-10.32-15.61-18.69-10.91L645.67,84.28c-3.89,2.22-6.34,6.38-6.34,10.91
						v408.93c0,2.22,0.59,4.35,1.67,6.2l159.16-149.25l173.56-150.93H800.18z"/>
					<path class="st0" d="M1134.57,89.71v414.41c0,2.22-0.59,4.35-1.67,6.2L973.73,361.06H800.18l173.56-150.93V13
						c0-2.26,0.59-4.35,1.58-6.16c0.41-0.68,0.91-1.36,1.4-1.99c3.71-4.25,10.14-5.88,15.7-2.76l135.81,76.75
						C1132.17,81.06,1134.57,85.23,1134.57,89.71z"/>
				</g>
			</g>
			<path class="st1" d="M1132.9,510.31c-1.18,2.13-2.94,3.85-5.16,4.98l-141.11,70.33c-5.97,2.81-12.9-1.58-12.9-8.19V361.06
				L1132.9,510.31z"/>
		</g>
	</g>
</g>
</svg>
